<?xml version="1.0" encoding="UTF-8"?>
<svg width="160px" height="160px" viewBox="0 0 160 160" version="1.1" xmlns="http://www.w3.org/2000/svg">
    <defs>
        <linearGradient id="examGradient" x1="0%" y1="0%" x2="100%" y2="100%">
            <stop offset="0%" stop-color="#DC143C" />
            <stop offset="100%" stop-color="#1E90FF" />
        </linearGradient>
        <filter id="examShadow" x="-20%" y="-20%" width="140%" height="140%">
            <feGaussianBlur stdDeviation="2" result="blur" />
            <feFlood flood-color="rgba(0,0,0,0.2)" result="color"/>
            <feComposite in="color" in2="blur" operator="in" result="shadow"/>
            <feComposite in="SourceGraphic" in2="shadow" operator="over"/>
        </filter>
        <filter id="glow" x="-50%" y="-50%" width="200%" height="200%">
            <feGaussianBlur stdDeviation="2" result="blur" />
            <feFlood flood-color="#8A2BE2" flood-opacity="0.5" result="glow" />
            <feComposite operator="in" in="glow" in2="blur" result="softGlow" />
            <feComposite operator="over" in="softGlow" in2="SourceGraphic" />
        </filter>
    </defs>
    <g stroke="none" stroke-width="1" fill="none" fill-rule="evenodd">
        <circle fill="#F5F7FF" cx="80" cy="80" r="70"></circle>
        
        <!-- Document base -->
        <rect x="40" y="30" width="80" height="100" rx="4" 
              stroke="url(#examGradient)" 
              stroke-width="3" 
              fill="#FFFFFF"
              filter="url(#examShadow)"></rect>
        
        <!-- Top header markers -->
        <rect x="45" y="38" width="10" height="4" rx="2" fill="#DC143C"></rect>
        <rect x="60" y="38" width="10" height="4" rx="2" fill="#1E90FF"></rect>
        <rect x="75" y="38" width="10" height="4" rx="2" fill="#8A2BE2"></rect>
        <rect x="90" y="38" width="10" height="4" rx="2" fill="#4CAF50"></rect>
        
        <!-- Document lines -->
        <line x1="50" y1="55" x2="110" y2="55" stroke="#DC143C" stroke-width="2" stroke-linecap="round"></line>
        <line x1="50" y1="70" x2="90" y2="70" stroke="#1E90FF" stroke-width="2" stroke-linecap="round"></line>
        <line x1="50" y1="85" x2="70" y2="85" stroke="#8A2BE2" stroke-width="2" stroke-linecap="round"></line>
        
        <!-- Multiple choice options -->
        <circle stroke="#8A2BE2" stroke-width="2" fill="#FFFFFF" cx="55" cy="100" r="5"></circle>
        <circle stroke="#8A2BE2" stroke-width="2" fill="#FFFFFF" cx="55" cy="115" r="5"></circle>
        <circle stroke="#8A2BE2" stroke-width="2" fill="#4CAF50" cx="55" cy="130" r="5"></circle>
        <text fill="#4CAF50" font-size="8" font-family="Arial" font-weight="bold" x="52.5" y="133">✓</text>
        
        <line x1="65" y1="100" x2="100" y2="100" stroke="#E0E0E0" stroke-width="1.5" stroke-linecap="round"></line>
        <line x1="65" y1="115" x2="100" y2="115" stroke="#E0E0E0" stroke-width="1.5" stroke-linecap="round"></line>
        <line x1="65" y1="130" x2="100" y2="130" stroke="#E0E0E0" stroke-width="1.5" stroke-linecap="round"></line>
        
        <!-- Search/examination elements -->
        <circle stroke="#DC143C" stroke-width="3" fill="#FFFFFF" cx="115" cy="110" r="20"></circle>
        <circle fill="#F5F7FF" cx="115" cy="110" r="17"></circle>
        
        <!-- Magnifying glass -->
        <circle stroke="#1E90FF" stroke-width="2.5" fill="none" cx="115" cy="110" r="10" filter="url(#glow)"></circle>
        <line x1="121" y1="116" x2="130" y2="125" stroke="#1E90FF" stroke-width="3" stroke-linecap="round"></line>
        
        <!-- Timer elements -->
        <circle fill="#DC143C" cx="135" cy="40" r="15" opacity="0.2"></circle>
        <circle fill="none" stroke="#DC143C" stroke-width="2" cx="135" cy="40" r="12"></circle>
        <path d="M135,32 L135,40 L142,43" stroke="#DC143C" stroke-width="2" stroke-linecap="round" stroke-linejoin="round"></path>
    </g>
</svg> 