<?xml version="1.0" encoding="UTF-8"?>
<svg width="160px" height="160px" viewBox="0 0 160 160" version="1.1" xmlns="http://www.w3.org/2000/svg">
    <defs>
        <linearGradient id="plannerGradient" x1="0%" y1="0%" x2="100%" y2="100%">
            <stop offset="0%" stop-color="#1E90FF" />
            <stop offset="100%" stop-color="#DC143C" />
        </linearGradient>
        <linearGradient id="headerGradient" x1="0%" y1="0%" x2="100%" y2="0%">
            <stop offset="0%" stop-color="#8A2BE2" />
            <stop offset="100%" stop-color="#4CAF50" />
        </linearGradient>
        <filter id="plannerShadow" x="-20%" y="-20%" width="140%" height="140%">
            <feGaussianBlur stdDeviation="2" result="blur" />
            <feFlood flood-color="rgba(0,0,0,0.2)" result="color"/>
            <feComposite in="color" in2="blur" operator="in" result="shadow"/>
            <feComposite in="SourceGraphic" in2="shadow" operator="over"/>
        </filter>
    </defs>
    <g stroke="none" stroke-width="1" fill="none" fill-rule="evenodd">
        <circle fill="#F5F7FF" cx="80" cy="80" r="70"></circle>
        
        <!-- Calendar base -->
        <rect x="35" y="40" width="90" height="85" rx="6" 
              stroke="url(#plannerGradient)" 
              stroke-width="3" 
              fill="#FFFFFF"
              filter="url(#plannerShadow)"></rect>
        
        <!-- Calendar header -->
        <rect x="35" y="40" width="90" height="20" rx="6" 
              fill="url(#headerGradient)"></rect>
        
        <!-- Calendar pins -->
        <circle fill="#DC143C" cx="50" cy="30" r="4"></circle>
        <path d="M50,30 L50,40" stroke="#DC143C" stroke-width="2"></path>
        
        <circle fill="#1E90FF" cx="80" cy="30" r="4"></circle>
        <path d="M80,30 L80,40" stroke="#1E90FF" stroke-width="2"></path>
        
        <circle fill="#8A2BE2" cx="110" cy="30" r="4"></circle>
        <path d="M110,30 L110,40" stroke="#8A2BE2" stroke-width="2"></path>
        
        <!-- Calendar days grid -->
        <line x1="35" y1="70" x2="125" y2="70" stroke="#E0E0E0" stroke-width="1"></line>
        <line x1="35" y1="90" x2="125" y2="90" stroke="#E0E0E0" stroke-width="1"></line>
        <line x1="35" y1="110" x2="125" y2="110" stroke="#E0E0E0" stroke-width="1"></line>
        
        <line x1="50" y1="60" x2="50" y2="125" stroke="#E0E0E0" stroke-width="1"></line>
        <line x1="65" y1="60" x2="65" y2="125" stroke="#E0E0E0" stroke-width="1"></line>
        <line x1="80" y1="60" x2="80" y2="125" stroke="#E0E0E0" stroke-width="1"></line>
        <line x1="95" y1="60" x2="95" y2="125" stroke="#E0E0E0" stroke-width="1"></line>
        <line x1="110" y1="60" x2="110" y2="125" stroke="#E0E0E0" stroke-width="1"></line>
        
        <!-- Calendar events -->
        <rect x="38" y="75" width="24" height="10" rx="2" fill="#1E90FF" opacity="0.7"></rect>
        <rect x="67" y="95" width="24" height="10" rx="2" fill="#4CAF50" opacity="0.7"></rect>
        <rect x="96" y="75" width="24" height="10" rx="2" fill="#8A2BE2" opacity="0.7"></rect>
        <rect x="52" y="115" width="38" height="10" rx="2" fill="#DC143C" opacity="0.7"></rect>
        
        <!-- Timer indicators -->
        <circle fill="#FFFFFF" stroke="#DC143C" stroke-width="2" cx="125" cy="125" r="15"></circle>
        <path d="M125,114 L125,125 L133,129" stroke="#DC143C" stroke-width="2" stroke-linecap="round"></path>
        
        <!-- Small widgets -->
        <rect x="30" y="130" width="20" height="14" rx="3" fill="#1E90FF" opacity="0.8"></rect>
        <rect x="55" y="130" width="20" height="14" rx="3" fill="#4CAF50" opacity="0.8"></rect>
        <rect x="80" y="130" width="20" height="14" rx="3" fill="#8A2BE2" opacity="0.8"></rect>
        
        <!-- Header icons -->
        <circle fill="#FFFFFF" cx="45" cy="50" r="3"></circle>
        <circle fill="#FFFFFF" cx="55" cy="50" r="3"></circle>
        <circle fill="#FFFFFF" cx="65" cy="50" r="3"></circle>
    </g>
</svg> 