<?xml version="1.0" encoding="UTF-8"?>
<svg width="160px" height="160px" viewBox="0 0 160 160" version="1.1" xmlns="http://www.w3.org/2000/svg">
    <defs>
        <linearGradient id="conceptGradient" x1="0%" y1="0%" x2="100%" y2="100%">
            <stop offset="0%" stop-color="#1E90FF" />
            <stop offset="100%" stop-color="#4CAF50" />
        </linearGradient>
        <radialGradient id="centerGlow" cx="50%" cy="50%" r="50%" fx="50%" fy="50%">
            <stop offset="0%" stop-color="#DC143C" stop-opacity="0.8" />
            <stop offset="100%" stop-color="#DC143C" stop-opacity="0.1" />
        </radialGradient>
        <filter id="conceptShadow" x="-20%" y="-20%" width="140%" height="140%">
            <feGaussianBlur stdDeviation="3" result="blur" />
            <feFlood flood-color="rgba(0,0,0,0.15)" result="color"/>
            <feComposite in="color" in2="blur" operator="in" result="shadow"/>
            <feComposite in="SourceGraphic" in2="shadow" operator="over"/>
        </filter>
    </defs>
    <g stroke="none" stroke-width="1" fill="none" fill-rule="evenodd">
        <circle fill="#F5F7FF" cx="80" cy="80" r="70"></circle>
        
        <!-- Main display screen -->
        <path d="M40,40 L120,40 C126.627,40 132,45.373 132,52 L132,108 C132,114.627 126.627,120 120,120 L40,120 C33.373,120 28,114.627 28,108 L28,52 C28,45.373 33.373,40 40,40 Z" 
              stroke="#1E90FF" 
              stroke-width="4" 
              fill="#FFFFFF"
              filter="url(#conceptShadow)"></path>
        
        <!-- Stand legs -->
        <path d="M60,120 L60,130" stroke="#1E90FF" stroke-width="4" stroke-linecap="round"></path>
        <path d="M100,120 L100,130" stroke="#1E90FF" stroke-width="4" stroke-linecap="round"></path>
        <path d="M60,130 L100,130" stroke="#1E90FF" stroke-width="4" stroke-linecap="round"></path>
        
        <!-- Center atom/concept -->
        <circle fill="url(#centerGlow)" cx="80" cy="80" r="15" opacity="0.7"></circle>
        <circle fill="#FFFFFF" stroke="#DC143C" stroke-width="3" cx="80" cy="80" r="12"></circle>
        
        <!-- Orbiting elements -->
        <circle fill="#1E90FF" cx="55" cy="55" r="6"></circle>
        <circle fill="#8A2BE2" cx="105" cy="55" r="6"></circle>
        <circle fill="#4CAF50" cx="55" cy="105" r="6"></circle>
        <circle fill="#FFC107" cx="105" cy="105" r="6"></circle>
        
        <!-- Connecting lines -->
        <path d="M68,68 L55,55" stroke="#1E90FF" stroke-width="2"></path>
        <path d="M92,68 L105,55" stroke="#8A2BE2" stroke-width="2"></path>
        <path d="M68,92 L55,105" stroke="#4CAF50" stroke-width="2"></path>
        <path d="M92,92 L105,105" stroke="#FFC107" stroke-width="2"></path>
        
        <!-- Sub-elements for complexity -->
        <circle fill="#DC143C" cx="45" cy="65" r="3"></circle>
        <circle fill="#DC143C" cx="115" cy="65" r="3"></circle>
        <circle fill="#DC143C" cx="45" cy="95" r="3"></circle>
        <circle fill="#DC143C" cx="115" cy="95" r="3"></circle>
        
        <!-- Orbital rings -->
        <ellipse stroke="url(#conceptGradient)" stroke-width="1" stroke-dasharray="2,1" cx="80" cy="80" rx="40" ry="25" transform="rotate(30 80 80)"></ellipse>
        <ellipse stroke="url(#conceptGradient)" stroke-width="1" stroke-dasharray="2,1" cx="80" cy="80" rx="40" ry="25" transform="rotate(90 80 80)"></ellipse>
        <ellipse stroke="url(#conceptGradient)" stroke-width="1" stroke-dasharray="2,1" cx="80" cy="80" rx="40" ry="25" transform="rotate(150 80 80)"></ellipse>
    </g>
</svg> 