<svg width="20" height="20" viewBox="0 0 20 20" fill="none" xmlns="http://www.w3.org/2000/svg">
  <path d="M13.6996 3.73828C14.5996 2.65828 14.1496 1.00828 13.1796 0.378281C12.3096 -0.201719 11.0596 0.0782812 10.1996 1.10828C9.33961 2.13828 9.67961 3.67828 10.6096 4.27828C11.5396 4.87828 12.7996 4.81828 13.6996 3.73828Z" fill="black"/>
  <path d="M18.1396 14.0783C17.8096 13.1983 17.3296 12.3783 16.6996 11.6783C15.9996 10.8983 15.3996 10.0583 14.0796 9.99828C13.0396 9.94828 12.3596 10.5683 11.5396 10.6183C10.7196 10.6683 9.95961 9.99828 9.01961 10.0483C7.77961 10.1183 6.96961 11.0883 6.32961 12.0183C5.01961 13.9683 5.12961 17.1283 7.13961 19.4383C8.12961 20.5583 9.27961 19.9983 10.8196 19.9983C12.3596 19.9983 13.4296 20.5583 14.5296 19.9983C15.8196 19.3583 16.4896 18.1483 16.9496 16.9283C17.3996 15.7383 17.5696 14.5183 18.1396 14.0783Z" fill="black"/>
</svg> 