<svg width="24" height="24" viewBox="0 0 24 24" fill="none" xmlns="http://www.w3.org/2000/svg">
  <path d="M17.0398 12.4984C17.0248 10.7184 17.9198 9.4884 19.7398 8.5784C18.7698 7.2084 17.3498 6.4884 15.5298 6.3684C13.8098 6.2484 11.9498 7.3884 11.2998 7.3884C10.6098 7.3884 8.89977 6.4284 7.63977 6.4284C5.26977 6.4584 2.69977 8.3084 2.69977 12.0684C2.69977 13.0684 2.87977 14.0984 3.23977 15.1584C3.71977 16.5684 5.46977 20.0584 7.32977 19.9984C8.29977 19.9684 8.95977 19.2784 10.2498 19.2784C11.4998 19.2784 12.1098 19.9984 13.1998 19.9984C15.0798 19.9684 16.6498 16.8084 17.0998 15.3884C14.2998 13.9884 17.0398 12.4984 17.0398 12.4984Z" fill="currentColor"/>
  <path d="M13.8499 5.3984C14.6699 4.4184 14.4799 3.1484 14.4299 2.6484C13.3599 2.7084 12.1199 3.4284 11.5199 4.1484C10.8399 4.9684 10.4799 5.9984 10.5599 6.9684C11.7099 7.0584 12.9499 6.4584 13.8499 5.3984Z" fill="currentColor"/>
</svg> 