<svg width="20" height="20" viewBox="0 0 20 20" fill="none" xmlns="http://www.w3.org/2000/svg">
  <path d="M19.7748 10.2299C19.7748 9.55114 19.7172 8.87239 19.5943 8.21094H10.2002V11.9643H15.6054C15.3673 13.1808 14.6513 14.2342 13.6172 14.9053V17.3521H16.8282C18.7134 15.6421 19.7748 13.1654 19.7748 10.2299Z" fill="#4285F4"/>
  <path d="M10.2002 20.0001C12.897 20.0001 15.1695 19.1052 16.8358 17.3521L13.6248 14.9054C12.7299 15.5188 11.5711 15.8646 10.2078 15.8646C7.59985 15.8646 5.38487 14.1164 4.58988 11.7628H1.28516V14.2942C3.00269 17.8731 6.43098 20.0001 10.2002 20.0001Z" fill="#34A853"/>
  <path d="M4.5822 11.7628C4.1787 10.5462 4.1787 9.2336 4.5822 8.01698V5.48555H1.2851C0.110229 8.24767 0.110229 11.5321 1.2851 14.2942L4.5822 11.7628Z" fill="#FBBC04"/>
  <path d="M10.2002 4.13541C11.6213 4.11809 12.9946 4.66541 14.0173 5.66382L16.8896 2.79155C15.0736 1.07402 12.6816 0.0433172 10.2002 0.0606444C6.43098 0.0606444 3.00269 2.18767 1.28516 5.7665L4.58227 8.29794C5.36967 5.93698 7.59224 4.13541 10.2002 4.13541Z" fill="#EA4335"/>
</svg> 