<?xml version="1.0" encoding="UTF-8"?>
<svg width="24px" height="24px" viewBox="0 0 24 24" version="1.1" xmlns="http://www.w3.org/2000/svg">
    <g stroke="none" stroke-width="1" fill="none" fill-rule="evenodd">
        <path d="M6,2 L18,2 C19.1045695,2 20,2.8954305 20,4 L20,20 C20,21.1045695 19.1045695,22 18,22 L6,22 C4.8954305,22 4,21.1045695 4,20 L4,4 C4,2.8954305 4.8954305,2 6,2 Z" stroke="#DC143C" stroke-width="1.8"></path>
        <path d="M8,6 L16,6 C16.5522847,6 17,6.44771525 17,7 C17,7.55228475 16.5522847,8 16,8 L8,8 C7.44771525,8 7,7.55228475 7,7 C7,6.44771525 7.44771525,6 8,6 Z" fill="#DC143C"></path>
        <path d="M8,10 L13,10 C13.5522847,10 14,10.4477153 14,11 C14,11.5522847 13.5522847,12 13,12 L8,12 C7.44771525,12 7,11.5522847 7,11 C7,10.4477153 7.44771525,10 8,10 Z" fill="#DC143C"></path>
        <path d="M8,14 L16,14 C16.5522847,14 17,14.4477153 17,15 C17,15.5522847 16.5522847,16 16,16 L8,16 C7.44771525,16 7,15.5522847 7,15 C7,14.4477153 7.44771525,14 8,14 Z" fill="#DC143C"></path>
        <path d="M15,9.5 C15,9.22386 15.2239,9 15.5,9 L16.5,9 C16.7761,9 17,9.22386 17,9.5 L17,11.5 C17,11.7761 16.7761,12 16.5,12 L15.5,12 C15.2239,12 15,11.7761 15,11.5 L15,9.5 Z" fill="#DC143C"></path>
    </g>
</svg> 