<?xml version="1.0" encoding="UTF-8"?>
<svg width="24px" height="24px" viewBox="0 0 24 24" version="1.1" xmlns="http://www.w3.org/2000/svg">
    <g stroke="none" stroke-width="1" fill="none" fill-rule="evenodd">
        <path d="M4,4 L9,4 C10.1045695,4 11,4.8954305 11,6 L11,9 C11,10.1045695 10.1045695,11 9,11 L4,11 C2.8954305,11 2,10.1045695 2,9 L2,6 C2,4.8954305 2.8954305,4 4,4 Z" stroke="#DC143C" stroke-width="1.6"></path>
        <path d="M15,4 L20,4 C21.1045695,4 22,4.8954305 22,6 L22,9 C22,10.1045695 21.1045695,11 20,11 L15,11 C13.8954305,11 13,10.1045695 13,9 L13,6 C13,4.8954305 13.8954305,4 15,4 Z" stroke="#DC143C" stroke-width="1.6"></path>
        <path d="M4,13 L9,13 C10.1045695,13 11,13.8954305 11,15 L11,18 C11,19.1045695 10.1045695,20 9,20 L4,20 C2.8954305,20 2,19.1045695 2,18 L2,15 C2,13.8954305 2.8954305,13 4,13 Z" stroke="#DC143C" stroke-width="1.6"></path>
        <path d="M15,13 L20,13 C21.1045695,13 22,13.8954305 22,15 L22,18 C22,19.1045695 21.1045695,20 20,20 L15,20 C13.8954305,20 13,19.1045695 13,18 L13,15 C13,13.8954305 13.8954305,13 15,13 Z" stroke="#DC143C" stroke-width="1.6"></path>
        <path d="M6.5,6 L6.5,9" stroke="#DC143C" stroke-width="1.6" stroke-linecap="round"></path>
        <path d="M17.5,6 L17.5,9" stroke="#DC143C" stroke-width="1.6" stroke-linecap="round"></path>
        <path d="M6.5,15 L6.5,18" stroke="#DC143C" stroke-width="1.6" stroke-linecap="round"></path>
        <path d="M17.5,15 L17.5,18" stroke="#DC143C" stroke-width="1.6" stroke-linecap="round"></path>
    </g>
</svg> 