<?xml version="1.0" encoding="UTF-8"?>
<svg width="24px" height="24px" viewBox="0 0 24 24" version="1.1" xmlns="http://www.w3.org/2000/svg">
    <g stroke="none" stroke-width="1" fill="none" fill-rule="evenodd">
        <path d="M5,3 L19,3 C20.1045695,3 21,3.8954305 21,5 L21,19 C21,20.1045695 20.1045695,21 19,21 L5,21 C3.8954305,21 3,20.1045695 3,19 L3,5 C3,3.8954305 3.8954305,3 5,3 Z" stroke="#DC143C" stroke-width="1.6"></path>
        <path d="M7,9 L17,9" stroke="#DC143C" stroke-width="1.6" stroke-linecap="round"></path>
        <path d="M7,13 L13,13" stroke="#DC143C" stroke-width="1.6" stroke-linecap="round"></path>
        <path d="M7,17 L10,17" stroke="#DC143C" stroke-width="1.6" stroke-linecap="round"></path>
        <circle stroke="#DC143C" stroke-width="1.6" cx="17" cy="16" r="2.5"></circle>
        <path d="M19.5,18.5 L21,20" stroke="#DC143C" stroke-width="1.6" stroke-linecap="round"></path>
        <path d="M9,5 L9,7" stroke="#DC143C" stroke-width="1.6" stroke-linecap="round"></path>
        <path d="M12,5 L12,7" stroke="#DC143C" stroke-width="1.6" stroke-linecap="round"></path>
        <path d="M15,5 L15,7" stroke="#DC143C" stroke-width="1.6" stroke-linecap="round"></path>
    </g>
</svg> 