<?xml version="1.0" encoding="UTF-8"?>
<svg width="24px" height="24px" viewBox="0 0 24 24" version="1.1" xmlns="http://www.w3.org/2000/svg">
    <g stroke="none" stroke-width="1" fill="none" fill-rule="evenodd">
        <path d="M5,3 L19,3 C20.1045695,3 21,3.8954305 21,5 L21,15 C21,16.1045695 20.1045695,17 19,17 L5,17 C3.8954305,17 3,16.1045695 3,15 L3,5 C3,3.8954305 3.8954305,3 5,3 Z" stroke="#DC143C" stroke-width="1.6"></path>
        <path d="M16,17 L16,21" stroke="#DC143C" stroke-width="1.6" stroke-linecap="round"></path>
        <path d="M8,17 L8,21" stroke="#DC143C" stroke-width="1.6" stroke-linecap="round"></path>
        <path d="M8,21 L16,21" stroke="#DC143C" stroke-width="1.6" stroke-linecap="round"></path>
        <circle fill="#DC143C" cx="12" cy="10" r="3.5"></circle>
        <path d="M8,8 L5,5" stroke="#DC143C" stroke-width="1.6" stroke-linecap="round"></path>
        <path d="M16,8 L19,5" stroke="#DC143C" stroke-width="1.6" stroke-linecap="round"></path>
        <path d="M8,12 L5,15" stroke="#DC143C" stroke-width="1.6" stroke-linecap="round"></path>
        <path d="M16,12 L19,15" stroke="#DC143C" stroke-width="1.6" stroke-linecap="round"></path>
    </g>
</svg> 