<?xml version="1.0" encoding="UTF-8"?>
<svg width="24px" height="24px" viewBox="0 0 24 24" version="1.1" xmlns="http://www.w3.org/2000/svg">
    <g stroke="none" stroke-width="1" fill="none" fill-rule="evenodd">
        <path d="M12,4 C16.0599,4 19.4065,6.63565 19.9424,10.2065 C19.9801,10.4713 19.799,10.7197 19.5343,10.7573 C19.2695,10.795 19.0211,10.6139 18.9835,10.3492 C18.5223,7.1801 15.5554,4.8 12,4.8 C8.27562,4.8 5.2,7.87562 5.2,11.6 C5.2,15.3244 8.27562,18.4 12,18.4 C15.5553,18.4 18.5223,16.02 18.9835,12.8508 C19.0211,12.5861 19.2695,12.405 19.5343,12.4427 C19.799,12.4803 19.9801,12.7287 19.9424,12.9935 C19.4065,16.5644 16.0599,19.2 12,19.2 C7.8297,19.2 4.4,15.7703 4.4,11.6 C4.4,7.4297 7.8297,4 12,4 Z" fill="#DC143C" fill-rule="nonzero"></path>
        <path d="M14.5,11.5 L19.5,11.5 L19.5,12.5 L14.5,12.5 L14.5,11.5 Z" fill="#DC143C" fill-rule="nonzero"></path>
        <path d="M11.1,9.30002 L10.29999,9.80001 L7.5,5.00001 L8.30001,4.50002 L11.1,9.30002 Z" fill="#DC143C" fill-rule="nonzero"></path>
        <path d="M10.3,13.3 L11.1,13.8 L8.3,18.6 L7.5,18.1 L10.3,13.3 Z" fill="#DC143C" fill-rule="nonzero"></path>
        <circle fill="#DC143C" cx="12" cy="11.6" r="2.5"></circle>
    </g>
</svg> 