<?xml version="1.0" encoding="UTF-8"?>
<svg width="24px" height="24px" viewBox="0 0 24 24" version="1.1" xmlns="http://www.w3.org/2000/svg" id="svg-ai-icon">
    <g stroke="none" stroke-width="1" fill="none" fill-rule="evenodd">
        <path d="M12,3 C16.9705627,3 21,7.02943725 21,12 C21,16.9705627 16.9705627,21 12,21 C7.02943725,21 3,16.9705627 3,12 C3,7.02943725 7.02943725,3 12,3 Z M12,5 C8.13400675,5 5,8.13400675 5,12 C5,15.8659932 8.13400675,19 12,19 C15.8659932,19 19,15.8659932 19,12 C19,8.13400675 15.8659932,5 12,5 Z" fill="#DC143C" fill-rule="nonzero"></path>
        <circle fill="#DC143C" cx="12" cy="12" r="2"></circle>
        <circle fill="#DC143C" cx="12" cy="7" r="1"></circle>
        <circle fill="#DC143C" cx="12" cy="17" r="1"></circle>
        <circle fill="#DC143C" cx="7" cy="12" r="1"></circle>
        <circle fill="#DC143C" cx="17" cy="12" r="1"></circle>
        <path d="M15.5,8.5 L17,7" stroke="#DC143C" stroke-width="1.5" stroke-linecap="round"></path>
        <path d="M15.5,15.5 L17,17" stroke="#DC143C" stroke-width="1.5" stroke-linecap="round"></path>
        <path d="M8.5,15.5 L7,17" stroke="#DC143C" stroke-width="1.5" stroke-linecap="round"></path>
        <path d="M8.5,8.5 L7,7" stroke="#DC143C" stroke-width="1.5" stroke-linecap="round"></path>
    </g>
</svg> 