<?xml version="1.0" encoding="UTF-8"?>
<svg width="24px" height="24px" viewBox="0 0 24 24" version="1.1" xmlns="http://www.w3.org/2000/svg">
    <g stroke="none" stroke-width="1" fill="none" fill-rule="evenodd">
        <path d="M9,3 L15,3 C17.7614,3 20,5.23858 20,8 L20,13 C20,15.7614 17.7614,18 15,18 L14,18 L14,21.0025 C14,21.3343 13.7485,21.612 13.4192,21.6458 C13.2871,21.6606 13.153,21.6291 13.0421,21.5567 L8.37764,18 L9,18 C6.23858,18 4,15.7614 4,13 L4,8 C4,5.23858 6.23858,3 9,3 Z" stroke="#DC143C" stroke-width="1.8"></path>
        <path d="M7.5,10 C7.5,9.44772 7.94772,9 8.5,9 C9.05228,9 9.5,9.44772 9.5,10 C9.5,10.5523 9.05228,11 8.5,11 C7.94772,11 7.5,10.5523 7.5,10 Z" fill="#DC143C" fill-rule="nonzero"></path>
        <path d="M11,10 C11,9.44772 11.4477,9 12,9 C12.5523,9 13,9.44772 13,10 C13,10.5523 12.5523,11 12,11 C11.4477,11 11,10.5523 11,10 Z" fill="#DC143C" fill-rule="nonzero"></path>
        <path d="M14.5,10 C14.5,9.44772 14.9477,9 15.5,9 C16.0523,9 16.5,9.44772 16.5,10 C16.5,10.5523 16.0523,11 15.5,11 C14.9477,11 14.5,10.5523 14.5,10 Z" fill="#DC143C" fill-rule="nonzero"></path>
    </g>
</svg> 