<svg width="40" height="40" viewBox="0 0 40 40" fill="none" xmlns="http://www.w3.org/2000/svg">
  <rect width="40" height="40" rx="4" fill="#F7DF1E"/>
  <path d="M10.6 33.5L13.4 31.8C14.1 33.1 14.8 34.1 16.3 34.1C17.8 34.1 18.7 33.5 18.7 31.2V21H22.3V31.2C22.3 35.3 20.1 36.9 16.4 36.9C13 36.9 11.3 35.3 10.6 33.5ZM24.1 33.2L26.9 31.6C27.9 33.4 29.2 34.6 31.5 34.6C33.4 34.6 34.7 33.6 34.7 32.2C34.7 30.5 33.4 29.9 31.2 28.9L30.1 28.4C26.7 26.9 24.5 25 24.5 21C24.5 17.3 27.2 14.5 31.3 14.5C34.4 14.5 36.6 15.7 38.2 18.9L35.6 20.7C34.8 19.2 34 18.6 31.3 18.6C29.6 18.6 28.7 19.5 28.7 20.7C28.7 22.2 29.6 22.8 31.7 23.7L32.8 24.2C36.8 26 39 27.9 39 32C39 36.4 35.8 38.7 31.6 38.7C27.5 38.7 25 36.7 24.1 33.2Z" fill="black"/>
</svg> 