<svg width="500" height="400" viewBox="0 0 500 400" fill="none" xmlns="http://www.w3.org/2000/svg">
  <!-- Background elements -->
  <circle cx="250" cy="200" r="170" fill="#1E2A45" opacity="0.3" />
  <circle cx="400" cy="100" r="30" fill="#2E3A59" opacity="0.4" />
  <circle cx="100" cy="300" r="20" fill="#2E3A59" opacity="0.4" />
  
  <!-- Main screen/monitor -->
  <rect x="130" y="90" width="240" height="180" rx="10" fill="#181C24" />
  <rect x="140" y="100" width="220" height="160" rx="5" fill="#293241" />
  
  <!-- Login form on screen -->
  <rect x="180" y="120" width="140" height="120" rx="8" fill="#14171E" />
  <circle cx="250" cy="145" r="15" fill="#4361EE" />
  <path d="M243 145 Q250 138 257 145" stroke="#FFFFFF" stroke-width="2" />
  <circle cx="250" cy="140" r="3" fill="#FFFFFF" />
  
  <!-- Form fields -->
  <rect x="195" y="170" width="110" height="10" rx="2" fill="#293241" />
  <rect x="195" y="190" width="110" height="10" rx="2" fill="#293241" />
  
  <!-- Submit button -->
  <rect x="215" y="215" width="70" height="15" rx="7.5" fill="#EF233C" />
  <rect x="230" y="220" width="40" height="5" rx="2.5" fill="#FFFFFF" />
  
  <!-- Computer base -->
  <rect x="190" y="270" width="120" height="10" rx="3" fill="#181C24" />
  <rect x="210" y="280" width="80" height="20" rx="3" fill="#14171E" />
  
  <!-- Character -->
  <!-- Head -->
  <circle cx="90" cy="150" r="30" fill="#FFC2A3" />
  
  <!-- Hair -->
  <path d="M60 135 Q75 100 110 110 Q125 110 120 135" fill="#6423C0" />
  <path d="M60 135 Q65 150 75 160" fill="#6423C0" />
  
  <!-- Face details -->
  <circle cx="80" cy="140" r="3" fill="#181C24" />
  <circle cx="100" cy="140" r="3" fill="#181C24" />
  <path d="M85 155 Q90 160 95 155" stroke="#7A4F4F" stroke-width="2" />
  
  <!-- Body -->
  <path d="M70 180 Q90 170 110 180 L115 270 L65 270 Z" fill="#4361EE" />
  
  <!-- Arms -->
  <path d="M110 190 Q140 170 160 190" stroke="#FFC2A3" stroke-width="12" stroke-linecap="round" />
  <path d="M70 190 Q40 240 30 270" stroke="#FFC2A3" stroke-width="12" stroke-linecap="round" />
  
  <!-- Lock icon with animation -->
  <g transform="translate(380, 200)">
    <rect x="-20" y="-25" width="40" height="30" rx="5" fill="#EF233C" />
    <rect x="-10" y="-30" width="20" height="15" rx="3" fill="#EF233C" />
    <circle cx="0" cy="-10" r="5" fill="#FFFFFF" />
    <rect x="-2" y="-10" width="4" height="12" fill="#FFFFFF" />
    
    <!-- Animated rays around lock -->
    <path d="M0 -40 L0 -60" stroke="#EF233C" stroke-width="2" stroke-dasharray="5,5" />
    <path d="M0 20 L0 40" stroke="#EF233C" stroke-width="2" stroke-dasharray="5,5" />
    <path d="M-30 -10 L-50 -10" stroke="#EF233C" stroke-width="2" stroke-dasharray="5,5" />
    <path d="M30 -10 L50 -10" stroke="#EF233C" stroke-width="2" stroke-dasharray="5,5" />
    <path d="M-20 -30 L-35 -45" stroke="#EF233C" stroke-width="2" stroke-dasharray="5,5" />
    <path d="M20 -30 L35 -45" stroke="#EF233C" stroke-width="2" stroke-dasharray="5,5" />
    <path d="M-20 10 L-35 25" stroke="#EF233C" stroke-width="2" stroke-dasharray="5,5" />
    <path d="M20 10 L35 25" stroke="#EF233C" stroke-width="2" stroke-dasharray="5,5" />
  </g>
  
  <!-- Cloud icons representing data -->
  <path d="M330 70 Q340 50 360 60 Q370 50 380 60 Q390 55 395 65 Q410 60 420 80 Q410 100 390 95 Q380 105 360 95 Q350 100 330 90 Q325 80 330 70Z" fill="#4361EE" opacity="0.6" />
  <path d="M370 320 Q380 300 400 310 Q410 300 420 310 Q430 305 435 315 Q450 310 460 330 Q450 350 430 345 Q420 355 400 345 Q390 350 370 340 Q365 330 370 320Z" fill="#8338EC" opacity="0.6" />
  
  <!-- Floating data elements -->
  <rect x="340" y="120" width="15" height="15" rx="2" fill="#EF233C" opacity="0.8" />
  <rect x="370" y="140" width="10" height="10" rx="2" fill="#4361EE" opacity="0.8" />
  <rect x="350" y="170" width="12" height="12" rx="2" fill="#8338EC" opacity="0.8" />
  
  <rect x="390" y="240" width="15" height="15" rx="2" fill="#EF233C" opacity="0.8" />
  <rect x="420" y="260" width="10" height="10" rx="2" fill="#4361EE" opacity="0.8" />
  <rect x="400" y="290" width="12" height="12" rx="2" fill="#8338EC" opacity="0.8" />
  
  <!-- Connection lines between elements -->
  <path d="M100 280 Q200 320 380 280" stroke="#EF233C" stroke-width="1" stroke-dasharray="5,5" opacity="0.5" />
  <path d="M420 100 Q350 150 420 200" stroke="#4361EE" stroke-width="1" stroke-dasharray="5,5" opacity="0.5" />
  <path d="M150 70 Q180 30 250 50" stroke="#8338EC" stroke-width="1" stroke-dasharray="5,5" opacity="0.5" />
  
  <!-- Code brackets decoration -->
  <text x="50" y="80" font-family="monospace" font-size="20" fill="#4361EE">{</text>
  <text x="65" y="80" font-family="monospace" font-size="20" fill="#8338EC">}</text>
  <text x="50" y="340" font-family="monospace" font-size="20" fill="#4361EE">{</text>
  <text x="65" y="340" font-family="monospace" font-size="20" fill="#8338EC">}</text>
  <text x="450" y="80" font-family="monospace" font-size="20" fill="#4361EE">{</text>
  <text x="465" y="80" font-family="monospace" font-size="20" fill="#8338EC">}</text>
  <text x="450" y="340" font-family="monospace" font-size="20" fill="#4361EE">{</text>
  <text x="465" y="340" font-family="monospace" font-size="20" fill="#8338EC">}</text>
</svg> 