<svg width="40" height="40" viewBox="0 0 40 40" fill="none" xmlns="http://www.w3.org/2000/svg">
  <path d="M35 10.7321C35 9.91716 35 9.50937 34.8661 9.13551C34.7323 8.76165 34.4785 8.43426 33.9711 7.77947L32.2204 5.5289C31.7131 4.87412 31.4594 4.54672 31.0856 4.27337C30.7117 4 30.304 4 29.4883 4H10.5117C9.69599 4 9.28768 4 8.91446 4.27337C8.54124 4.54672 8.28751 4.87412 7.77962 5.5289L6.02883 7.77947C5.52094 8.43426 5.26721 8.76165 5.13361 9.13551C5 9.50937 5 9.91716 5 10.7321V30C5 31.8638 5 32.7956 5.39053 33.5307C5.72934 34.1759 6.26465 34.7112 6.90891 35.0501C7.64407 35.4406 8.57613 35.4406 10.4383 35.4406H29.5617C31.4239 35.4406 32.3559 35.4406 33.0911 35.0501C33.7354 34.7112 34.2707 34.1759 34.6095 33.5307C35 32.7956 35 31.8638 35 30V10.7321Z" fill="white"/>
  <path d="M11.0001 13.9994C11.0001 13.4475 11.4487 12.9993 12.0012 12.9994L28.0045 13.0009C28.5568 13.001 29.0053 13.4492 29.0052 14.0011L29.0036 28.0001C29.0035 28.552 28.5549 29.0002 28.0024 29.0001L11.999 28.9986C11.4468 28.9985 10.9983 28.5503 10.9984 27.9984L11.0001 13.9994Z" fill="#4361EE"/>
  <path d="M18.1229 8.58679C18.3183 8.2211 18.7451 8 19.1935 8H20.8077C21.2557 8 21.6833 8.22087 21.8783 8.58679L22.8593 10.5868C23.0544 10.9527 23.0544 11.3936 22.8593 11.7595L21.8783 13.7595C21.6829 14.1252 21.256 14.3463 20.8077 14.3463H19.1934C18.7455 14.3463 18.3179 14.1254 18.1229 13.7595L17.1419 11.7595C16.9468 11.3936 16.9468 10.9527 17.1419 10.5868L18.1229 8.58679Z" fill="white"/>
</svg> 