<svg width="40" height="40" viewBox="0 0 40 40" fill="none" xmlns="http://www.w3.org/2000/svg">
  <path d="M27 15C27 11.13 23.87 8 20 8C16.13 8 13 11.13 13 15C13 17.85 14.92 20.27 17.5 21.32V23C17.5 23.82 18.18 24.5 19 24.5H21C21.82 24.5 22.5 23.82 22.5 23V21.32C25.08 20.27 27 17.85 27 15Z" stroke="#8B5CF6" stroke-width="2" stroke-linecap="round" stroke-linejoin="round"/>
  <path d="M20 29V26.5" stroke="#8B5CF6" stroke-width="2" stroke-linecap="round" stroke-linejoin="round"/>
  <path d="M16 32L18 27" stroke="#8B5CF6" stroke-width="2" stroke-linecap="round" stroke-linejoin="round"/>
  <path d="M24 32L22 27" stroke="#8B5CF6" stroke-width="2" stroke-linecap="round" stroke-linejoin="round"/>
  <path d="M14 17.5C12.07 17.5 10.5 15.93 10.5 14C10.5 12.07 12.07 10.5 14 10.5" stroke="#EC4899" stroke-width="2" stroke-linecap="round" stroke-linejoin="round"/>
  <path d="M26 17.5C27.93 17.5 29.5 15.93 29.5 14C29.5 12.07 27.93 10.5 26 10.5" stroke="#EC4899" stroke-width="2" stroke-linecap="round" stroke-linejoin="round"/>
</svg> 