<svg width="40" height="40" viewBox="0 0 40 40" fill="none" xmlns="http://www.w3.org/2000/svg">
  <path d="M19.5 8C15.91 8 13 9.34 13 11V14H20V15H10C8.34 15 7 17.12 7 20C7 22.88 8.34 25 10 25H13V22C13 19.79 15.79 18 18 18H22C24.21 18 26 16.21 26 14V11C26 9.34 23.09 8 19.5 8ZM17 12C17.55 12 18 11.55 18 11C18 10.45 17.55 10 17 10C16.45 10 16 10.45 16 11C16 11.55 16.45 12 17 12Z" fill="#3776AB"/>
  <path d="M27 15H24V18C24 20.21 21.21 22 19 22H15C12.79 22 11 23.79 11 26V29C11 30.66 13.91 32 17.5 32C21.09 32 24 30.66 24 29V26H17V25H27C28.66 25 30 22.88 30 20C30 17.12 28.66 15 27 15ZM20 30C19.45 30 19 29.55 19 29C19 28.45 19.45 28 20 28C20.55 28 21 28.45 21 29C21 29.55 20.55 30 20 30Z" fill="#FFD43B"/>
</svg> 