<?xml version="1.0" encoding="UTF-8"?>
<svg width="300" height="200" viewBox="0 0 300 200" version="1.1" xmlns="http://www.w3.org/2000/svg">
    <defs>
        <linearGradient id="shareGradient" x1="0%" y1="0%" x2="100%" y2="100%">
            <stop offset="0%" stop-color="#DC143C" />
            <stop offset="100%" stop-color="#87CEEB" />
        </linearGradient>
    </defs>
    
    <!-- Background -->
    <rect width="300" height="200" fill="none" />
    
    <!-- Speech Bubbles -->
    <path d="M50,70 C30,70 20,90 20,110 C20,130 30,150 50,150 L70,150 L60,180 L90,150 L100,150 C120,150 130,130 130,110 C130,90 120,70 100,70 Z" 
          fill="rgba(220, 20, 60, 0.1)" stroke="#DC143C" stroke-width="2" />
    
    <path d="M200,30 C180,30 170,50 170,70 C170,90 180,110 200,110 L220,110 L210,140 L240,110 L250,110 C270,110 280,90 280,70 C280,50 270,30 250,30 Z" 
          fill="rgba(135, 206, 235, 0.1)" stroke="#87CEEB" stroke-width="2" />
    
    <!-- Stars/Review Icons -->
    <g transform="translate(60, 110)">
        <path d="M10,0 L13,6 L20,7 L15,12 L16,19 L10,16 L4,19 L5,12 L0,7 L7,6 Z" fill="url(#shareGradient)" />
    </g>
    
    <g transform="translate(85, 110)">
        <path d="M10,0 L13,6 L20,7 L15,12 L16,19 L10,16 L4,19 L5,12 L0,7 L7,6 Z" fill="url(#shareGradient)" />
    </g>
    
    <g transform="translate(210, 70)">
        <path d="M10,0 L13,6 L20,7 L15,12 L16,19 L10,16 L4,19 L5,12 L0,7 L7,6 Z" fill="url(#shareGradient)" />
    </g>
    
    <g transform="translate(235, 70)">
        <path d="M10,0 L13,6 L20,7 L15,12 L16,19 L10,16 L4,19 L5,12 L0,7 L7,6 Z" fill="url(#shareGradient)" />
    </g>
    
    <!-- Speech Lines -->
    <line x1="45" y1="95" x2="105" y2="95" stroke="#DC143C" stroke-width="2" />
    <line x1="45" y1="110" x2="85" y2="110" stroke="#DC143C" stroke-width="2" />
    <line x1="45" y1="125" x2="105" y2="125" stroke="#DC143C" stroke-width="2" />
    
    <line x1="195" y1="50" x2="255" y2="50" stroke="#87CEEB" stroke-width="2" />
    <line x1="195" y1="65" x2="235" y2="65" stroke="#87CEEB" stroke-width="2" />
    <line x1="195" y1="80" x2="255" y2="80" stroke="#87CEEB" stroke-width="2" />
    
    <!-- Connecting Line -->
    <path d="M130,110 C170,90 170,90 170,70" stroke="url(#shareGradient)" stroke-width="2" stroke-dasharray="5,5" />
    
    <!-- Share Icon -->
    <circle cx="150" cy="100" r="20" fill="rgba(255, 255, 255, 0.2)" stroke="url(#shareGradient)" stroke-width="2" />
    <path d="M145,100 L155,100 M150,95 L150,105 M140,90 L160,90 M140,110 L160,110" stroke="url(#shareGradient)" stroke-width="2" />
</svg> 