<svg xmlns="http://www.w3.org/2000/svg" viewBox="0 0 200 200" width="200" height="200">
  <!-- Gradient Definitions -->
  <defs>
    <linearGradient id="crimsonBlueGradient" x1="0%" y1="0%" x2="100%" y2="100%">
      <stop offset="0%" stop-color="#dc143c" />
      <stop offset="100%" stop-color="#87ceeb" />
    </linearGradient>
    <filter id="glow" x="-20%" y="-20%" width="140%" height="140%">
      <feGaussianBlur stdDeviation="4" result="blur" />
      <feComposite in="SourceGraphic" in2="blur" operator="over" />
    </filter>
  </defs>
  
  <!-- Background Circle -->
  <circle cx="100" cy="100" r="90" fill="none" stroke="url(#crimsonBlueGradient)" stroke-width="3" />
  
  <!-- Eye Symbol (Vision) -->
  <ellipse cx="100" cy="85" rx="40" ry="25" fill="none" stroke="url(#crimsonBlueGradient)" stroke-width="4" />
  <circle cx="100" cy="85" r="12" fill="url(#crimsonBlueGradient)" filter="url(#glow)" />
  
  <!-- Book Pages (Education) -->
  <path d="M60,120 C80,110 120,110 140,120 L140,150 C120,140 80,140 60,150 Z" fill="none" stroke="url(#crimsonBlueGradient)" stroke-width="3" />
  <path d="M60,120 C80,110 120,110 140,120" fill="none" stroke="url(#crimsonBlueGradient)" stroke-width="3" stroke-linecap="round" />
  <path d="M100,120 L100,150" fill="none" stroke="url(#crimsonBlueGradient)" stroke-width="2" />
  
  <!-- Letters V and T -->
  <path d="M75,70 L90,100 L105,70" fill="none" stroke="#dc143c" stroke-width="5" stroke-linecap="round" stroke-linejoin="round" />
  <path d="M120,70 L120,100 M110,70 L130,70" fill="none" stroke="#87ceeb" stroke-width="5" stroke-linecap="round" />
</svg> 